<?xml version="1.0" encoding="utf-8"?>
<!-- Generator: Adobe Illustrator 27.0.0, SVG Export Plug-In . SVG Version: 6.00 Build 0)  -->
<svg version="1.1" id="Слой_1" xmlns="http://www.w3.org/2000/svg" xmlns:xlink="http://www.w3.org/1999/xlink" x="0px" y="0px"
	 viewBox="0 0 72 72" style="enable-background:new 0 0 72 72;" xml:space="preserve">
<style type="text/css">
	.st0{fill:#FFFFFF;}
	.st1{fill:none;stroke:#FFFFFF;stroke-miterlimit:10;}
</style>
<g>
	<g>
		<path class="st0" d="M50.2,35.5c0.4-0.3,0.9-0.7,1.5-1.2c0.6-0.5,1.3-0.9,2-1.3c0.7-0.4,1.4-0.8,2.2-1.1c0.8-0.3,1.5-0.4,2.2-0.4
			c0.6,0,1,0.2,1.4,0.4c0.3,0.3,0.4,0.7,0.3,1.2c-0.1,0.5-0.3,0.9-0.7,1.3c-0.4,0.4-0.8,0.7-1.3,1c-0.5,0.3-0.9,0.5-1.4,0.7
			c-0.5,0.2-0.8,0.3-1.1,0.3c-0.1,0-0.3,0-0.4,0c-0.1,0-0.2,0-0.2-0.1c0-0.1,0.2-0.1,0.6-0.2c0.7-0.2,1.4-0.6,2.1-1.1
			c0.7-0.5,1.1-1.1,1.2-1.9c0.1-0.4,0-0.7-0.2-0.9c-0.2-0.2-0.4-0.4-0.7-0.4c-0.7,0-1.5,0.2-2.3,0.6c-0.8,0.4-1.6,1-2.5,1.7
			c-0.8,0.7-1.7,1.5-2.5,2.4c-0.8,0.9-1.6,1.8-2.3,2.8c-1,1.3-1.8,2.4-2.5,3.6c-0.7,1.1-1.1,2.1-1.3,2.9c-0.2,1.1,0.1,1.6,0.9,1.6
			c0.4,0,0.9-0.1,1.4-0.4c0.5-0.3,1.1-0.6,1.7-1c0.3-0.2,0.6-0.5,1.1-0.8c0.4-0.4,0.8-0.7,1.1-1c0.4-0.3,0.6-0.5,0.7-0.4
			c0.1,0.1,0,0.1-0.1,0.3c-0.1,0.1-0.2,0.2-0.4,0.4c-0.1,0.1-0.3,0.3-0.5,0.5c-0.2,0.2-0.4,0.3-0.6,0.5c-0.2,0.2-0.4,0.4-0.6,0.5
			c-0.2,0.2-0.4,0.3-0.5,0.4c-0.1,0.1-0.3,0.2-0.6,0.4c-0.3,0.2-0.6,0.4-0.9,0.5c-0.4,0.2-0.7,0.3-1.2,0.5c-0.4,0.1-0.8,0.2-1.3,0.3
			c-0.9,0-1.6-0.2-1.9-0.6c-0.4-0.4-0.5-1-0.4-1.7c0.1-0.4,0.1-0.7,0.3-1c0.1-0.3,0.3-0.6,0.4-0.8v0c-0.6,0.5-1.2,1.1-1.9,1.6
			c-0.7,0.5-1.4,1-2.1,1.4c-0.8,0.4-1.5,0.7-2.4,1c-0.8,0.2-1.7,0.4-2.6,0.4c-0.9,0-1.8-0.2-2.5-0.5c-0.8-0.4-1.2-1-1.3-1.9
			c-0.1-0.6,0.1-1.2,0.5-1.8c0.4-0.6,1-0.9,1.8-0.9c0.4,0,0.7,0.1,1,0.3c0.2,0.2,0.4,0.5,0.3,0.8c0,0.3-0.1,0.5-0.3,0.7
			c-0.1,0.2-0.3,0.3-0.5,0.5c-0.2,0.2-0.4,0.4-0.6,0.5c-0.2,0.2-0.3,0.4-0.3,0.7c0,0.4,0.2,0.7,0.5,0.9c0.4,0.2,0.8,0.3,1.3,0.3
			c1.1,0,2.2-0.2,3.2-0.7c1-0.5,2-1.1,3-1.8c1-0.7,1.8-1.6,2.7-2.5c0.8-0.9,1.6-1.8,2.3-2.7c0.5-0.6,1-1.3,1.4-1.9
			c0.5-0.7,0.9-1.3,1.3-1.9c0.4-0.6,0.7-1.2,1-1.7c0.3-0.5,0.4-0.9,0.5-1.3c0.2-0.7,0.1-1.1-0.3-1.4c-0.4-0.2-0.8-0.4-1.2-0.4
			c-1,0-2.1,0.3-3.3,0.9c-1.2,0.6-2.4,1.4-3.5,2.5c-0.4,0.4-0.8,0.8-1.2,1.2c-0.4,0.4-0.7,0.9-1,1.3c-0.3,0.4-0.5,0.9-0.7,1.3
			c-0.2,0.4-0.3,0.8-0.3,1.2c0,0.5,0.1,0.9,0.4,1.2c0.2,0.3,0.6,0.4,1.1,0.4c0.4,0,0.7,0,0.9-0.1c0.2-0.1,0.4-0.2,0.5-0.3
			c0.2-0.1,0.3-0.2,0.4-0.3c0.1-0.1,0.1-0.1,0.2-0.1c0.1,0.1,0.1,0.1-0.1,0.3c-0.1,0.1-0.2,0.2-0.4,0.4c-0.2,0.1-0.4,0.2-0.7,0.4
			c-0.2,0.1-0.5,0.2-0.9,0.2c-0.6,0-1-0.2-1.4-0.5c-0.4-0.3-0.6-0.8-0.6-1.4c0-0.9,0.2-1.9,0.7-3c0.5-1.1,1.3-2,2.3-2.9
			c1.3-1.1,2.6-1.8,4-2.3c1.4-0.5,2.6-0.7,3.6-0.7c0.9,0,1.6,0.2,2.2,0.5c0.5,0.4,0.8,0.9,0.8,1.7c0,0.3-0.1,0.7-0.2,1
			C50.6,34.8,50.4,35.2,50.2,35.5z"/>
	</g>
	<g>
		<path class="st0" d="M12.2,38.1c0-0.7,0.2-1.2,0.6-1.7c0.4-0.4,0.9-0.7,1.4-0.7c0.4-0.1,0.8,0,1.1,0.3c0.3,0.2,0.4,0.5,0.4,0.9
			c0,0.3-0.1,0.5-0.2,0.7c-0.2,0.2-0.4,0.4-0.7,0.6c-0.2,0.1-0.4,0.3-0.5,0.4c-0.1,0.2-0.2,0.3-0.2,0.5c0,0.4,0.3,0.8,1,1
			c0.6,0.3,1.6,0.4,2.9,0.3c0.8-0.1,1.5-0.2,2.2-0.4c0.7-0.2,1.5-0.5,2.1-0.8c0.7-0.3,1.3-0.7,2-1c0.6-0.4,1.2-0.7,1.8-1.1
			c-0.2-0.2-0.4-0.4-0.6-0.7c-0.2-0.3-0.5-0.6-0.7-1c-0.2-0.4-0.4-0.8-0.6-1.3c-0.2-0.5-0.2-0.9-0.2-1.4c0-1.2,0.5-2.2,1.3-2.9
			c0.8-0.8,2-1.2,3.4-1.2c0.5,0,1,0.1,1.4,0.3c0.4,0.2,0.8,0.4,1.2,0.7c0.4,0.3,0.6,0.6,0.9,0.9c0.2,0.3,0.4,0.6,0.5,0.9
			c0.3-0.3,0.6-0.6,0.9-0.9c0.4-0.3,0.7-0.6,0.9-0.8c1-0.9,2-1.8,3-2.6s1.9-1.4,2.9-1.9c0.8-0.4,1.5-0.8,2.3-1.1
			c0.8-0.3,1.6-0.4,2.3-0.4c0.4,0,0.7,0,0.9,0.1c0.2,0.1,0.4,0.2,0.5,0.2c0.1,0.1,0.2,0.2,0.3,0.3c0.1,0.1,0.1,0.2,0,0.2
			c0,0-0.2-0.1-0.4-0.3c-0.2-0.2-0.5-0.2-0.9-0.2c-0.5,0-0.9,0.1-1.3,0.4c-0.2,0.2-0.4,0.4-0.7,0.7c-0.3,0.3-0.6,0.6-0.8,0.9
			c-0.3,0.3-0.6,0.7-0.8,1c-0.3,0.4-0.5,0.7-0.8,1c-1.2,1.7-2.5,3.5-3.7,5.4c-1.3,1.9-2.5,3.8-3.6,5.6c0.6-0.1,1.4-0.3,2.2-0.7
			c0.4-0.2,0.9-0.5,1.3-0.8c0.5-0.4,0.8-0.7,1.2-1c0.2-0.2,0.3-0.2,0.4-0.1c0.1,0.1-0.1,0.2-0.3,0.5c-0.3,0.3-0.6,0.6-1.1,0.9
			c-0.4,0.3-0.9,0.6-1.4,0.9c-0.4,0.2-0.8,0.4-1.3,0.5c-0.4,0.1-0.8,0.2-1.2,0.2c-0.3,0.3-0.5,0.5-0.8,0.7c-0.2,0.2-0.5,0.3-0.8,0.3
			c-0.3,0.1-0.5,0.1-0.6,0c-0.1,0-0.2-0.1-0.3-0.1c-0.1-0.1-0.1-0.1-0.1-0.2c0-0.1,0-0.2,0.1-0.2c0.1-0.1,0.1-0.2,0.2-0.3
			c0.1-0.1,0.1-0.2,0.2-0.3c-0.4-0.1-0.8-0.1-1.3-0.3c-0.5-0.1-0.9-0.3-1.3-0.4c-0.4-0.2-0.9-0.4-1.3-0.6c-0.4-0.2-0.8-0.5-1-0.7
			c-0.4,0.3-0.8,0.6-1.4,1c-0.6,0.4-1.3,0.8-2.1,1.1c-0.8,0.4-1.6,0.7-2.5,1c-0.9,0.3-1.8,0.4-2.7,0.5c-0.8,0.1-1.5,0-2.1-0.1
			c-0.7-0.1-1.3-0.3-1.8-0.5c-0.5-0.2-0.9-0.5-1.2-0.9C12.4,39.2,12.2,38.7,12.2,38.1L12.2,38.1z M28.5,29.2c-0.5,0-1,0.1-1.3,0.3
			c-0.4,0.2-0.7,0.5-1,0.8c-0.3,0.3-0.5,0.7-0.6,1.1c-0.1,0.4-0.2,0.9-0.3,1.3c0,0.4,0,0.8,0.1,1.2c0.1,0.4,0.2,0.8,0.3,1.1
			c0.1,0.3,0.3,0.6,0.4,0.9c0.2,0.3,0.3,0.5,0.4,0.6c0.4-0.3,0.9-0.7,1.3-1.1c0.5-0.4,1-0.8,1.5-1.3c0.5-0.4,0.9-0.8,1.4-1.3
			c0.5-0.4,0.9-0.8,1.4-1.3c-0.4-0.7-0.9-1.3-1.5-1.8C30.1,29.4,29.4,29.2,28.5,29.2L28.5,29.2z M26.9,37c0.2,0.3,0.5,0.5,0.9,0.7
			c0.4,0.2,0.8,0.4,1.1,0.6c0.3,0.1,0.7,0.3,1.2,0.4c0.5,0.2,0.9,0.3,1.3,0.3c0.1-0.1,0.2-0.3,0.3-0.5c0.1-0.2,0.2-0.4,0.4-0.6
			c0.1-0.2,0.2-0.3,0.3-0.5c0.1-0.1,0.2-0.3,0.2-0.3c0.1-0.3,0.2-0.7,0.3-1.3c0-0.5,0-1.1,0-1.6c-0.1-0.5-0.1-0.9-0.2-1.3
			c-0.1-0.4-0.1-0.7-0.3-1c-0.5,0.4-0.9,0.9-1.4,1.3c-0.5,0.4-0.9,0.8-1.3,1.2c-0.5,0.5-1,0.9-1.5,1.3C27.8,36.2,27.3,36.6,26.9,37z
			 M33.2,36.5c0.2-0.3,0.5-0.8,0.9-1.4s0.8-1.2,1.3-1.8c0.4-0.6,0.9-1.3,1.3-1.9c0.5-0.6,0.9-1.2,1.2-1.6c1.2-1.6,2.3-2.8,3.4-3.7
			c1-0.9,2-1.6,2.9-2v0c-0.4,0.1-1,0.2-1.7,0.5c-0.7,0.2-1.4,0.6-2,0.9c-0.9,0.5-1.8,1.2-2.7,1.9c-0.9,0.7-1.7,1.5-2.5,2.1
			c-0.5,0.4-0.9,0.8-1.3,1.2c-0.4,0.4-0.8,0.7-1.2,1.1c0.1,0.3,0.2,0.6,0.3,1c0.1,0.4,0.2,0.9,0.2,1.5C33.4,35,33.3,35.8,33.2,36.5z
			"/>
	</g>
</g>
<circle class="st1" cx="36" cy="36" r="26.5"/>
<path class="st1" d="M24.5,7.3L7.3,24.5c-1.9,1.9-2.6,4.6-1.9,7.2l6.3,23.4c0.7,2.6,2.7,4.6,5.3,5.3l23.4,6.3c2.6,0.7,5.3,0,7.2-1.9
	l17.1-17.1c1.9-1.9,2.6-4.6,1.9-7.2l-6.3-23.4c-0.7-2.6-2.7-4.6-5.3-5.3L31.7,5.4C29.1,4.7,26.4,5.5,24.5,7.3z"/>
<path class="st1" d="M32.3,5.3l-21,12.1c-2.3,1.3-3.7,3.8-3.7,6.4v24.2c0,2.7,1.4,5.1,3.7,6.4l21,12.1c2.3,1.3,5.1,1.3,7.4,0
	l21-12.1c2.3-1.3,3.7-3.8,3.7-6.4V23.9c0-2.7-1.4-5.1-3.7-6.4l-21-12.1C37.4,4,34.6,4,32.3,5.3z"/>
<path class="st1" d="M40.3,5.4l-23.4,6.3c-2.6,0.7-4.6,2.7-5.3,5.3L5.4,40.3c-0.7,2.6,0,5.3,1.9,7.2l17.1,17.1
	c1.9,1.9,4.6,2.6,7.2,1.9l23.4-6.3c2.6-0.7,4.6-2.7,5.3-5.3l6.3-23.4c0.7-2.6,0-5.3-1.9-7.2L47.5,7.3C45.6,5.5,42.9,4.7,40.3,5.4z"
	/>
<path class="st1" d="M48.1,7.6H23.9c-2.7,0-5.1,1.4-6.4,3.7l-12.1,21c-1.3,2.3-1.3,5.1,0,7.4l12.1,21c1.3,2.3,3.8,3.7,6.4,3.7h24.2
	c2.7,0,5.1-1.4,6.4-3.7l12.1-21c1.3-2.3,1.3-5.1,0-7.4l-12.1-21C53.2,9,50.8,7.6,48.1,7.6z"/>
</svg>
